<?xml version="1.0" ?><!DOCTYPE svg  PUBLIC '-//W3C//DTD SVG 1.1//EN'  'http://www.w3.org/Graphics/SVG/1.1/DTD/svg11.dtd'><svg enable-background="new 0 0 32 32" height="32px" version="1.1" viewBox="0 0 32 32" width="32px" xml:space="preserve" xmlns="http://www.w3.org/2000/svg" xmlns:xlink="http://www.w3.org/1999/xlink"><g id="website_bookmark_favorite_site"><g><g id="response_time_2_"><circle cx="7.5" cy="4.5" fill="#E9CECE" r="0.5"/><circle cx="5.5" cy="4.5" fill="#E9CECE" r="0.5"/><circle cx="3.5" cy="4.5" fill="#E9CECE" r="0.5"/><path d="M30.5,7h-2C28.224,7,28,6.776,28,6.5S28.224,6,28.5,6h2C30.776,6,31,6.224,31,6.5S30.776,7,30.5,7z" fill="#E9CECE"/><path d="M13.5,7h-12C1.224,7,1,6.776,1,6.5S1.224,6,1.5,6h12C13.776,6,14,6.224,14,6.5S13.776,7,13.5,7z" fill="#E9CECE"/><path d="M6.5,28h-4C1.673,28,1,27.327,1,26.5v-23C1,2.673,1.673,2,2.5,2h11C13.776,2,14,2.224,14,2.5     S13.776,3,13.5,3h-11C2.224,3,2,3.225,2,3.5v23C2,26.775,2.224,27,2.5,27h4C6.776,27,7,27.224,7,27.5S6.776,28,6.5,28z" fill="#E9CECE"/><path d="M29.5,28h-24C5.224,28,5,27.776,5,27.5S5.224,27,5.5,27h24c0.276,0,0.5-0.225,0.5-0.5v-23     C30,3.225,29.776,3,29.5,3h-1C28.224,3,28,2.776,28,2.5S28.224,2,28.5,2h1C30.327,2,31,2.673,31,3.5v23     C31,27.327,30.327,28,29.5,28z" fill="#E9CECE"/></g></g><g><path d="M6.5,16h-3C3.224,16,3,15.776,3,15.5S3.224,15,3.5,15h3C6.776,15,7,15.224,7,15.5S6.776,16,6.5,16z" fill="#E9CECE"/></g><g><path d="M12.5,10h-9C3.224,10,3,9.776,3,9.5S3.224,9,3.5,9h9C12.776,9,13,9.224,13,9.5S12.776,10,12.5,10z" fill="#E9CECE"/></g><g><path d="M12.5,12h-9C3.224,12,3,11.776,3,11.5S3.224,11,3.5,11h9c0.276,0,0.5,0.224,0.5,0.5S12.776,12,12.5,12z" fill="#E9CECE"/></g><g><path d="M12.5,14h-9C3.224,14,3,13.776,3,13.5S3.224,13,3.5,13h9c0.276,0,0.5,0.224,0.5,0.5S12.776,14,12.5,14z" fill="#E9CECE"/></g><g><path d="M26.5,23c-0.113,0-0.226-0.038-0.316-0.113L21,18.646l-5.184,4.24c-0.149,0.123-0.356,0.146-0.531,0.065    C15.111,22.869,15,22.693,15,22.5v-17C15,5.224,15.224,5,15.5,5S16,5.224,16,5.5v15.945l4.684-3.832    c0.184-0.15,0.449-0.15,0.633,0L26,21.445V2.5C26,2.225,25.776,2,25.5,2h-9C16.224,2,16,2.225,16,2.5v0.499    c0,0.276-0.224,0.5-0.5,0.5S15,3.275,15,2.999V2.5C15,1.673,15.673,1,16.5,1h9C26.327,1,27,1.673,27,2.5v20    c0,0.193-0.111,0.369-0.286,0.452C26.646,22.984,26.573,23,26.5,23z" fill="#E9CECE"/></g></g></svg>