<svg width="120" height="107" viewBox="0 0 120 107" fill="none" xmlns="http://www.w3.org/2000/svg">
<path d="M57.3542 52.3506C58.8125 53.8971 61.1875 53.8971 62.6667 52.3506L85.3542 28.4846C91.9375 21.5463 91.5625 10.0521 84.1875 3.65721C77.7708 -1.92267 68.2083 -0.919544 62.3333 5.26639L60 7.71151L57.6875 5.28729C51.8125 -0.919544 42.25 -1.92267 35.8333 3.65721C28.4792 10.0521 28.0833 21.5463 34.6667 28.4846L57.3542 52.3506ZM117.771 68.5678C115.313 66.3316 111.479 66.4779 108.896 68.5678L89.6458 84.0117C87.2917 85.9135 84.3542 86.9375 81.3125 86.9375H56.6667C54.8333 86.9375 53.3333 85.4328 53.3333 83.5937C53.3333 81.7547 54.8333 80.25 56.6667 80.25H72.9792C76.2917 80.25 79.375 77.9721 79.9167 74.691C80.6042 70.5113 77.3958 66.875 73.3333 66.875H40C34.375 66.875 28.9375 68.8185 24.5625 72.3713L14.875 80.25H3.33333C1.5 80.25 0 81.7547 0 83.5937V103.656C0 105.495 1.5 107 3.33333 107H77.6667C80.6875 107 83.625 105.976 86 104.074L117.5 78.7871C120.667 76.2584 120.917 71.4099 117.771 68.5678Z" fill="white"/>
</svg>